<svg xmlns="http://www.w3.org/2000/svg" width="1000" height="1190"><rect width="1000" height="1190" fill="#122236"/><text x="28" y="30" fill="#ccd4db" font-family="sans-serif" font-size="14">Chichen Itza · 0%</text><g transform="translate(68 45) scale(0.8620689655172413)"><defs><clipPath id="fill-0-0"><rect x="0" y="179.2" width="224" height="203"/></clipPath><clipPath id="shape-0-0"><path d="M23.8 179.2 L33.6 161 H41.3 V154 L51.8 136.5 H56 V129.5 L65.8 112 H70 V105 L79.1 87.5 H82.6 V80.5 L88.9 65.1 V59.5 H86.8 V23.8 H137.2 V59.5 H135.1 V65.1 L141.4 80.5 V87.5 H144.9 L154 105 V112 H158.2 L168 129.5 V136.5 H172.2 L182.7 154 V161 H190.4 L200.2 179.2 Z M102.9 59.5 V35.7 H121.1 V59.5 Z" clip-rule="evenodd"/></clipPath></defs><g fill="none" stroke="#e9c587" stroke-width="1" opacity=".42"><path d="M23.8 179.2 L33.6 161 H41.3 V154 L51.8 136.5 H56 V129.5 L65.8 112 H70 V105 L79.1 87.5 H82.6 V80.5 L88.9 65.1 V59.5 H86.8 V23.8 H137.2 V59.5 H135.1 V65.1 L141.4 80.5 V87.5 H144.9 L154 105 V112 H158.2 L168 129.5 V136.5 H172.2 L182.7 154 V161 H190.4 L200.2 179.2 Z M102.9 59.5 V35.7 H121.1 V59.5 Z"/><path d="M23.8 179.2 H200.2 L190.4 161 H182.7 V154 H41.3 V161 H33.6 Z M41.3 154 L51.8 136.5 H56 V129.5 H168 V136.5 H172.2 L182.7 154 M56 129.5 L65.8 112 H70 V105 H154 V112 H158.2 L168 129.5 M70 105 L79.1 87.5 H82.6 V80.5 H141.4 V87.5 H144.9 L154 105 M82.6 80.5 L88.9 65.1 V59.5 H135.1 V65.1 L141.4 80.5 M86.8 59.5 V23.8 H137.2 V59.5 M81.2 23.8 H142.8 M102.9 59.5 V35.7 H121.1 V59.5 M84.7 179.2 L102.2 60.9 M139.3 179.2 L121.8 60.9 M89.6 154 H134.4 M93.1 129.5 H130.9 M96.6 105 H127.4 M99.4 80.5 H124.6"/><path d="M87.5 166.6 H136.5 M91.7 142.1 H132.3 M95.2 117.6 H128.8 M98 93.1 H126 M47.6 141.4 H90.3 M133.7 141.4 H176.4 M61.6 116.9 H94.5 M129.5 116.9 H162.4"/></g><g clip-path="url(#fill-0-0)"><path d="M23.8 179.2 L33.6 161 H41.3 V154 L51.8 136.5 H56 V129.5 L65.8 112 H70 V105 L79.1 87.5 H82.6 V80.5 L88.9 65.1 V59.5 H86.8 V23.8 H137.2 V59.5 H135.1 V65.1 L141.4 80.5 V87.5 H144.9 L154 105 V112 H158.2 L168 129.5 V136.5 H172.2 L182.7 154 V161 H190.4 L200.2 179.2 Z M102.9 59.5 V35.7 H121.1 V59.5 Z" fill="#e8bd72" fill-opacity=".42" fill-rule="evenodd"/><g fill="none" stroke="#ffe8b7" stroke-width="1.4"><path d="M23.8 179.2 L33.6 161 H41.3 V154 L51.8 136.5 H56 V129.5 L65.8 112 H70 V105 L79.1 87.5 H82.6 V80.5 L88.9 65.1 V59.5 H86.8 V23.8 H137.2 V59.5 H135.1 V65.1 L141.4 80.5 V87.5 H144.9 L154 105 V112 H158.2 L168 129.5 V136.5 H172.2 L182.7 154 V161 H190.4 L200.2 179.2 Z M102.9 59.5 V35.7 H121.1 V59.5 Z"/><path d="M23.8 179.2 H200.2 L190.4 161 H182.7 V154 H41.3 V161 H33.6 Z M41.3 154 L51.8 136.5 H56 V129.5 H168 V136.5 H172.2 L182.7 154 M56 129.5 L65.8 112 H70 V105 H154 V112 H158.2 L168 129.5 M70 105 L79.1 87.5 H82.6 V80.5 H141.4 V87.5 H144.9 L154 105 M82.6 80.5 L88.9 65.1 V59.5 H135.1 V65.1 L141.4 80.5 M86.8 59.5 V23.8 H137.2 V59.5 M81.2 23.8 H142.8 M102.9 59.5 V35.7 H121.1 V59.5 M84.7 179.2 L102.2 60.9 M139.3 179.2 L121.8 60.9 M89.6 154 H134.4 M93.1 129.5 H130.9 M96.6 105 H127.4 M99.4 80.5 H124.6"/><path d="M87.5 166.6 H136.5 M91.7 142.1 H132.3 M95.2 117.6 H128.8 M98 93.1 H126 M47.6 141.4 H90.3 M133.7 141.4 H176.4 M61.6 116.9 H94.5 M129.5 116.9 H162.4"/></g></g><g clip-path="url(#shape-0-0)"><rect x="0" y="173.2" width="224" height="6" fill="#e8bd72" fill-opacity=".7"/><path d="M-80 173.2 Q-60 166.2 -40 173.2 T0 173.2 T40 173.2 T80 173.2 T120 173.2 T160 173.2 T200 173.2 T240 173.2 T280 173.2" fill="none" stroke="#fff8d6" stroke-width="2.6"/></g></g><text x="358" y="30" fill="#ccd4db" font-family="sans-serif" font-size="14">Chichen Itza · 50%</text><g transform="translate(398 45) scale(0.8620689655172413)"><defs><clipPath id="fill-0-1"><rect x="0" y="101.49999999999999" width="224" height="203"/></clipPath><clipPath id="shape-0-1"><path d="M23.8 179.2 L33.6 161 H41.3 V154 L51.8 136.5 H56 V129.5 L65.8 112 H70 V105 L79.1 87.5 H82.6 V80.5 L88.9 65.1 V59.5 H86.8 V23.8 H137.2 V59.5 H135.1 V65.1 L141.4 80.5 V87.5 H144.9 L154 105 V112 H158.2 L168 129.5 V136.5 H172.2 L182.7 154 V161 H190.4 L200.2 179.2 Z M102.9 59.5 V35.7 H121.1 V59.5 Z" clip-rule="evenodd"/></clipPath></defs><g fill="none" stroke="#e9c587" stroke-width="1" opacity=".42"><path d="M23.8 179.2 L33.6 161 H41.3 V154 L51.8 136.5 H56 V129.5 L65.8 112 H70 V105 L79.1 87.5 H82.6 V80.5 L88.9 65.1 V59.5 H86.8 V23.8 H137.2 V59.5 H135.1 V65.1 L141.4 80.5 V87.5 H144.9 L154 105 V112 H158.2 L168 129.5 V136.5 H172.2 L182.7 154 V161 H190.4 L200.2 179.2 Z M102.9 59.5 V35.7 H121.1 V59.5 Z"/><path d="M23.8 179.2 H200.2 L190.4 161 H182.7 V154 H41.3 V161 H33.6 Z M41.3 154 L51.8 136.5 H56 V129.5 H168 V136.5 H172.2 L182.7 154 M56 129.5 L65.8 112 H70 V105 H154 V112 H158.2 L168 129.5 M70 105 L79.1 87.5 H82.6 V80.5 H141.4 V87.5 H144.9 L154 105 M82.6 80.5 L88.9 65.1 V59.5 H135.1 V65.1 L141.4 80.5 M86.8 59.5 V23.8 H137.2 V59.5 M81.2 23.8 H142.8 M102.9 59.5 V35.7 H121.1 V59.5 M84.7 179.2 L102.2 60.9 M139.3 179.2 L121.8 60.9 M89.6 154 H134.4 M93.1 129.5 H130.9 M96.6 105 H127.4 M99.4 80.5 H124.6"/><path d="M87.5 166.6 H136.5 M91.7 142.1 H132.3 M95.2 117.6 H128.8 M98 93.1 H126 M47.6 141.4 H90.3 M133.7 141.4 H176.4 M61.6 116.9 H94.5 M129.5 116.9 H162.4"/></g><g clip-path="url(#fill-0-1)"><path d="M23.8 179.2 L33.6 161 H41.3 V154 L51.8 136.5 H56 V129.5 L65.8 112 H70 V105 L79.1 87.5 H82.6 V80.5 L88.9 65.1 V59.5 H86.8 V23.8 H137.2 V59.5 H135.1 V65.1 L141.4 80.5 V87.5 H144.9 L154 105 V112 H158.2 L168 129.5 V136.5 H172.2 L182.7 154 V161 H190.4 L200.2 179.2 Z M102.9 59.5 V35.7 H121.1 V59.5 Z" fill="#e8bd72" fill-opacity=".42" fill-rule="evenodd"/><g fill="none" stroke="#ffe8b7" stroke-width="1.4"><path d="M23.8 179.2 L33.6 161 H41.3 V154 L51.8 136.5 H56 V129.5 L65.8 112 H70 V105 L79.1 87.5 H82.6 V80.5 L88.9 65.1 V59.5 H86.8 V23.8 H137.2 V59.5 H135.1 V65.1 L141.4 80.5 V87.5 H144.9 L154 105 V112 H158.2 L168 129.5 V136.5 H172.2 L182.7 154 V161 H190.4 L200.2 179.2 Z M102.9 59.5 V35.7 H121.1 V59.5 Z"/><path d="M23.8 179.2 H200.2 L190.4 161 H182.7 V154 H41.3 V161 H33.6 Z M41.3 154 L51.8 136.5 H56 V129.5 H168 V136.5 H172.2 L182.7 154 M56 129.5 L65.8 112 H70 V105 H154 V112 H158.2 L168 129.5 M70 105 L79.1 87.5 H82.6 V80.5 H141.4 V87.5 H144.9 L154 105 M82.6 80.5 L88.9 65.1 V59.5 H135.1 V65.1 L141.4 80.5 M86.8 59.5 V23.8 H137.2 V59.5 M81.2 23.8 H142.8 M102.9 59.5 V35.7 H121.1 V59.5 M84.7 179.2 L102.2 60.9 M139.3 179.2 L121.8 60.9 M89.6 154 H134.4 M93.1 129.5 H130.9 M96.6 105 H127.4 M99.4 80.5 H124.6"/><path d="M87.5 166.6 H136.5 M91.7 142.1 H132.3 M95.2 117.6 H128.8 M98 93.1 H126 M47.6 141.4 H90.3 M133.7 141.4 H176.4 M61.6 116.9 H94.5 M129.5 116.9 H162.4"/></g></g><g clip-path="url(#shape-0-1)"><rect x="0" y="101.49999999999999" width="224" height="6" fill="#e8bd72" fill-opacity=".7"/><path d="M-80 101.49999999999999 Q-60 94.49999999999999 -40 101.49999999999999 T0 101.49999999999999 T40 101.49999999999999 T80 101.49999999999999 T120 101.49999999999999 T160 101.49999999999999 T200 101.49999999999999 T240 101.49999999999999 T280 101.49999999999999" fill="none" stroke="#fff8d6" stroke-width="2.6"/></g></g><text x="688" y="30" fill="#ccd4db" font-family="sans-serif" font-size="14">Chichen Itza · 100%</text><g transform="translate(728 45) scale(0.8620689655172413)"><defs><clipPath id="fill-0-2"><rect x="0" y="0" width="224" height="203"/></clipPath><clipPath id="shape-0-2"><path d="M23.8 179.2 L33.6 161 H41.3 V154 L51.8 136.5 H56 V129.5 L65.8 112 H70 V105 L79.1 87.5 H82.6 V80.5 L88.9 65.1 V59.5 H86.8 V23.8 H137.2 V59.5 H135.1 V65.1 L141.4 80.5 V87.5 H144.9 L154 105 V112 H158.2 L168 129.5 V136.5 H172.2 L182.7 154 V161 H190.4 L200.2 179.2 Z M102.9 59.5 V35.7 H121.1 V59.5 Z" clip-rule="evenodd"/></clipPath></defs><g fill="none" stroke="#e9c587" stroke-width="1" opacity=".42"><path d="M23.8 179.2 L33.6 161 H41.3 V154 L51.8 136.5 H56 V129.5 L65.8 112 H70 V105 L79.1 87.5 H82.6 V80.5 L88.9 65.1 V59.5 H86.8 V23.8 H137.2 V59.5 H135.1 V65.1 L141.4 80.5 V87.5 H144.9 L154 105 V112 H158.2 L168 129.5 V136.5 H172.2 L182.7 154 V161 H190.4 L200.2 179.2 Z M102.9 59.5 V35.7 H121.1 V59.5 Z"/><path d="M23.8 179.2 H200.2 L190.4 161 H182.7 V154 H41.3 V161 H33.6 Z M41.3 154 L51.8 136.5 H56 V129.5 H168 V136.5 H172.2 L182.7 154 M56 129.5 L65.8 112 H70 V105 H154 V112 H158.2 L168 129.5 M70 105 L79.1 87.5 H82.6 V80.5 H141.4 V87.5 H144.9 L154 105 M82.6 80.5 L88.9 65.1 V59.5 H135.1 V65.1 L141.4 80.5 M86.8 59.5 V23.8 H137.2 V59.5 M81.2 23.8 H142.8 M102.9 59.5 V35.7 H121.1 V59.5 M84.7 179.2 L102.2 60.9 M139.3 179.2 L121.8 60.9 M89.6 154 H134.4 M93.1 129.5 H130.9 M96.6 105 H127.4 M99.4 80.5 H124.6"/><path d="M87.5 166.6 H136.5 M91.7 142.1 H132.3 M95.2 117.6 H128.8 M98 93.1 H126 M47.6 141.4 H90.3 M133.7 141.4 H176.4 M61.6 116.9 H94.5 M129.5 116.9 H162.4"/></g><g clip-path="url(#fill-0-2)"><path d="M23.8 179.2 L33.6 161 H41.3 V154 L51.8 136.5 H56 V129.5 L65.8 112 H70 V105 L79.1 87.5 H82.6 V80.5 L88.9 65.1 V59.5 H86.8 V23.8 H137.2 V59.5 H135.1 V65.1 L141.4 80.5 V87.5 H144.9 L154 105 V112 H158.2 L168 129.5 V136.5 H172.2 L182.7 154 V161 H190.4 L200.2 179.2 Z M102.9 59.5 V35.7 H121.1 V59.5 Z" fill="#e8bd72" fill-opacity=".42" fill-rule="evenodd"/><g fill="none" stroke="#ffe8b7" stroke-width="1.4"><path d="M23.8 179.2 L33.6 161 H41.3 V154 L51.8 136.5 H56 V129.5 L65.8 112 H70 V105 L79.1 87.5 H82.6 V80.5 L88.9 65.1 V59.5 H86.8 V23.8 H137.2 V59.5 H135.1 V65.1 L141.4 80.5 V87.5 H144.9 L154 105 V112 H158.2 L168 129.5 V136.5 H172.2 L182.7 154 V161 H190.4 L200.2 179.2 Z M102.9 59.5 V35.7 H121.1 V59.5 Z"/><path d="M23.8 179.2 H200.2 L190.4 161 H182.7 V154 H41.3 V161 H33.6 Z M41.3 154 L51.8 136.5 H56 V129.5 H168 V136.5 H172.2 L182.7 154 M56 129.5 L65.8 112 H70 V105 H154 V112 H158.2 L168 129.5 M70 105 L79.1 87.5 H82.6 V80.5 H141.4 V87.5 H144.9 L154 105 M82.6 80.5 L88.9 65.1 V59.5 H135.1 V65.1 L141.4 80.5 M86.8 59.5 V23.8 H137.2 V59.5 M81.2 23.8 H142.8 M102.9 59.5 V35.7 H121.1 V59.5 M84.7 179.2 L102.2 60.9 M139.3 179.2 L121.8 60.9 M89.6 154 H134.4 M93.1 129.5 H130.9 M96.6 105 H127.4 M99.4 80.5 H124.6"/><path d="M87.5 166.6 H136.5 M91.7 142.1 H132.3 M95.2 117.6 H128.8 M98 93.1 H126 M47.6 141.4 H90.3 M133.7 141.4 H176.4 M61.6 116.9 H94.5 M129.5 116.9 H162.4"/></g></g></g><text x="28" y="264" fill="#ccd4db" font-family="sans-serif" font-size="14">Angkor Wat · 0%</text><g transform="translate(68 279) scale(0.8333333333333334)"><defs><clipPath id="fill-1-0"><rect x="0" y="182.7" width="224" height="210"/></clipPath><clipPath id="shape-1-0"><path d="M35 182.7 V150.5 H33.6 V140 H37.1 V131.6 Q30.8 124.6 45.5 104.3 Q60.2 124.6 53.9 131.6 V140 H57.4 V150.5 H61.6 V136.5 H65.1 V122.5 H67.9 V112 Q60.9 100.1 75.6 74.2 Q90.3 100.1 83.3 112 V122.5 H86.1 V136.5 H89.6 V150.5 V133 H93.1 V117.6 H96.6 V103.6 H98.7 V89.6 Q89.6 63.7 112 22.4 Q134.4 63.7 125.3 89.6 V103.6 H127.4 V117.6 H130.9 V133 H134.4 V150.5 V136.5 H137.9 V122.5 H140.7 V112 Q133.7 100.1 148.4 74.2 Q163.1 100.1 156.1 112 V122.5 H158.9 V136.5 H162.4 V150.5 H166.6 V140 H170.1 V131.6 Q163.8 124.6 178.5 104.3 Q193.2 124.6 186.9 131.6 V140 H190.4 V150.5 H189 V182.7 Z" clip-rule="nonzero"/></clipPath></defs><g fill="none" stroke="#e9c587" stroke-width="1" opacity=".42"><path d="M35 182.7 V150.5 H33.6 V140 H37.1 V131.6 Q30.8 124.6 45.5 104.3 Q60.2 124.6 53.9 131.6 V140 H57.4 V150.5 H61.6 V136.5 H65.1 V122.5 H67.9 V112 Q60.9 100.1 75.6 74.2 Q90.3 100.1 83.3 112 V122.5 H86.1 V136.5 H89.6 V150.5 V133 H93.1 V117.6 H96.6 V103.6 H98.7 V89.6 Q89.6 63.7 112 22.4 Q134.4 63.7 125.3 89.6 V103.6 H127.4 V117.6 H130.9 V133 H134.4 V150.5 V136.5 H137.9 V122.5 H140.7 V112 Q133.7 100.1 148.4 74.2 Q163.1 100.1 156.1 112 V122.5 H158.9 V136.5 H162.4 V150.5 H166.6 V140 H170.1 V131.6 Q163.8 124.6 178.5 104.3 Q193.2 124.6 186.9 131.6 V140 H190.4 V150.5 H189 V182.7 Z"/><path d="M35 182.7 V150.5 H189 V182.7 M49.7 175 V161 M74.9 175 V161 M100.1 175 V157.5 M124.6 175 V157.5 M149.1 175 V161 M174.3 175 V161 M33.6 150.5 V140 H37.1 V131.6 Q30.8 124.6 45.5 104.3 Q60.2 124.6 53.9 131.6 V140 H57.4 V150.5 M166.6 150.5 V140 H170.1 V131.6 Q163.8 124.6 178.5 104.3 Q193.2 124.6 186.9 131.6 V140 H190.4 V150.5 M61.6 150.5 V136.5 H65.1 V122.5 H67.9 V112 Q60.9 100.1 75.6 74.2 Q90.3 100.1 83.3 112 V122.5 H86.1 V136.5 H89.6 V150.5 M134.4 150.5 V136.5 H137.9 V122.5 H140.7 V112 Q133.7 100.1 148.4 74.2 Q163.1 100.1 156.1 112 V122.5 H158.9 V136.5 H162.4 V150.5 M89.6 150.5 V133 H93.1 V117.6 H96.6 V103.6 H98.7 V89.6 Q89.6 63.7 112 22.4 M134.4 150.5 V133 H130.9 V117.6 H127.4 V103.6 H125.3 V89.6 Q134.4 63.7 112 22.4 M98.7 89.6 H125.3 M96.6 103.6 H127.4 M93.1 117.6 H130.9 M105.7 150.5 V129.5 H118.3 V150.5 M112 46.2 V77.7"/><path d="M103.6 61.6 H120.4 M100.1 75.6 H123.9 M67.9 112 H83.3 M140.7 112 H156.1 M37.1 131.6 H53.9 M170.1 131.6 H186.9"/></g><g clip-path="url(#fill-1-0)"><path d="M35 182.7 V150.5 H33.6 V140 H37.1 V131.6 Q30.8 124.6 45.5 104.3 Q60.2 124.6 53.9 131.6 V140 H57.4 V150.5 H61.6 V136.5 H65.1 V122.5 H67.9 V112 Q60.9 100.1 75.6 74.2 Q90.3 100.1 83.3 112 V122.5 H86.1 V136.5 H89.6 V150.5 V133 H93.1 V117.6 H96.6 V103.6 H98.7 V89.6 Q89.6 63.7 112 22.4 Q134.4 63.7 125.3 89.6 V103.6 H127.4 V117.6 H130.9 V133 H134.4 V150.5 V136.5 H137.9 V122.5 H140.7 V112 Q133.7 100.1 148.4 74.2 Q163.1 100.1 156.1 112 V122.5 H158.9 V136.5 H162.4 V150.5 H166.6 V140 H170.1 V131.6 Q163.8 124.6 178.5 104.3 Q193.2 124.6 186.9 131.6 V140 H190.4 V150.5 H189 V182.7 Z" fill="#e8bd72" fill-opacity=".42" fill-rule="nonzero"/><g fill="none" stroke="#ffe8b7" stroke-width="1.4"><path d="M35 182.7 V150.5 H33.6 V140 H37.1 V131.6 Q30.8 124.6 45.5 104.3 Q60.2 124.6 53.9 131.6 V140 H57.4 V150.5 H61.6 V136.5 H65.1 V122.5 H67.9 V112 Q60.9 100.1 75.6 74.2 Q90.3 100.1 83.3 112 V122.5 H86.1 V136.5 H89.6 V150.5 V133 H93.1 V117.6 H96.6 V103.6 H98.7 V89.6 Q89.6 63.7 112 22.4 Q134.4 63.7 125.3 89.6 V103.6 H127.4 V117.6 H130.9 V133 H134.4 V150.5 V136.5 H137.9 V122.5 H140.7 V112 Q133.7 100.1 148.4 74.2 Q163.1 100.1 156.1 112 V122.5 H158.9 V136.5 H162.4 V150.5 H166.6 V140 H170.1 V131.6 Q163.8 124.6 178.5 104.3 Q193.2 124.6 186.9 131.6 V140 H190.4 V150.5 H189 V182.7 Z"/><path d="M35 182.7 V150.5 H189 V182.7 M49.7 175 V161 M74.9 175 V161 M100.1 175 V157.5 M124.6 175 V157.5 M149.1 175 V161 M174.3 175 V161 M33.6 150.5 V140 H37.1 V131.6 Q30.8 124.6 45.5 104.3 Q60.2 124.6 53.9 131.6 V140 H57.4 V150.5 M166.6 150.5 V140 H170.1 V131.6 Q163.8 124.6 178.5 104.3 Q193.2 124.6 186.9 131.6 V140 H190.4 V150.5 M61.6 150.5 V136.5 H65.1 V122.5 H67.9 V112 Q60.9 100.1 75.6 74.2 Q90.3 100.1 83.3 112 V122.5 H86.1 V136.5 H89.6 V150.5 M134.4 150.5 V136.5 H137.9 V122.5 H140.7 V112 Q133.7 100.1 148.4 74.2 Q163.1 100.1 156.1 112 V122.5 H158.9 V136.5 H162.4 V150.5 M89.6 150.5 V133 H93.1 V117.6 H96.6 V103.6 H98.7 V89.6 Q89.6 63.7 112 22.4 M134.4 150.5 V133 H130.9 V117.6 H127.4 V103.6 H125.3 V89.6 Q134.4 63.7 112 22.4 M98.7 89.6 H125.3 M96.6 103.6 H127.4 M93.1 117.6 H130.9 M105.7 150.5 V129.5 H118.3 V150.5 M112 46.2 V77.7"/><path d="M103.6 61.6 H120.4 M100.1 75.6 H123.9 M67.9 112 H83.3 M140.7 112 H156.1 M37.1 131.6 H53.9 M170.1 131.6 H186.9"/></g></g><g clip-path="url(#shape-1-0)"><rect x="0" y="176.7" width="224" height="6" fill="#e8bd72" fill-opacity=".7"/><path d="M-80 176.7 Q-60 169.7 -40 176.7 T0 176.7 T40 176.7 T80 176.7 T120 176.7 T160 176.7 T200 176.7 T240 176.7 T280 176.7" fill="none" stroke="#fff8d6" stroke-width="2.6"/></g></g><text x="358" y="264" fill="#ccd4db" font-family="sans-serif" font-size="14">Angkor Wat · 50%</text><g transform="translate(398 279) scale(0.8333333333333334)"><defs><clipPath id="fill-1-1"><rect x="0" y="102.54999999999998" width="224" height="210"/></clipPath><clipPath id="shape-1-1"><path d="M35 182.7 V150.5 H33.6 V140 H37.1 V131.6 Q30.8 124.6 45.5 104.3 Q60.2 124.6 53.9 131.6 V140 H57.4 V150.5 H61.6 V136.5 H65.1 V122.5 H67.9 V112 Q60.9 100.1 75.6 74.2 Q90.3 100.1 83.3 112 V122.5 H86.1 V136.5 H89.6 V150.5 V133 H93.1 V117.6 H96.6 V103.6 H98.7 V89.6 Q89.6 63.7 112 22.4 Q134.4 63.7 125.3 89.6 V103.6 H127.4 V117.6 H130.9 V133 H134.4 V150.5 V136.5 H137.9 V122.5 H140.7 V112 Q133.7 100.1 148.4 74.2 Q163.1 100.1 156.1 112 V122.5 H158.9 V136.5 H162.4 V150.5 H166.6 V140 H170.1 V131.6 Q163.8 124.6 178.5 104.3 Q193.2 124.6 186.9 131.6 V140 H190.4 V150.5 H189 V182.7 Z" clip-rule="nonzero"/></clipPath></defs><g fill="none" stroke="#e9c587" stroke-width="1" opacity=".42"><path d="M35 182.7 V150.5 H33.6 V140 H37.1 V131.6 Q30.8 124.6 45.5 104.3 Q60.2 124.6 53.9 131.6 V140 H57.4 V150.5 H61.6 V136.5 H65.1 V122.5 H67.9 V112 Q60.9 100.1 75.6 74.2 Q90.3 100.1 83.3 112 V122.5 H86.1 V136.5 H89.6 V150.5 V133 H93.1 V117.6 H96.6 V103.6 H98.7 V89.6 Q89.6 63.7 112 22.4 Q134.4 63.7 125.3 89.6 V103.6 H127.4 V117.6 H130.9 V133 H134.4 V150.5 V136.5 H137.9 V122.5 H140.7 V112 Q133.7 100.1 148.4 74.2 Q163.1 100.1 156.1 112 V122.5 H158.9 V136.5 H162.4 V150.5 H166.6 V140 H170.1 V131.6 Q163.8 124.6 178.5 104.3 Q193.2 124.6 186.9 131.6 V140 H190.4 V150.5 H189 V182.7 Z"/><path d="M35 182.7 V150.5 H189 V182.7 M49.7 175 V161 M74.9 175 V161 M100.1 175 V157.5 M124.6 175 V157.5 M149.1 175 V161 M174.3 175 V161 M33.6 150.5 V140 H37.1 V131.6 Q30.8 124.6 45.5 104.3 Q60.2 124.6 53.9 131.6 V140 H57.4 V150.5 M166.6 150.5 V140 H170.1 V131.6 Q163.8 124.6 178.5 104.3 Q193.2 124.6 186.9 131.6 V140 H190.4 V150.5 M61.6 150.5 V136.5 H65.1 V122.5 H67.9 V112 Q60.9 100.1 75.6 74.2 Q90.3 100.1 83.3 112 V122.5 H86.1 V136.5 H89.6 V150.5 M134.4 150.5 V136.5 H137.9 V122.5 H140.7 V112 Q133.7 100.1 148.4 74.2 Q163.1 100.1 156.1 112 V122.5 H158.9 V136.5 H162.4 V150.5 M89.6 150.5 V133 H93.1 V117.6 H96.6 V103.6 H98.7 V89.6 Q89.6 63.7 112 22.4 M134.4 150.5 V133 H130.9 V117.6 H127.4 V103.6 H125.3 V89.6 Q134.4 63.7 112 22.4 M98.7 89.6 H125.3 M96.6 103.6 H127.4 M93.1 117.6 H130.9 M105.7 150.5 V129.5 H118.3 V150.5 M112 46.2 V77.7"/><path d="M103.6 61.6 H120.4 M100.1 75.6 H123.9 M67.9 112 H83.3 M140.7 112 H156.1 M37.1 131.6 H53.9 M170.1 131.6 H186.9"/></g><g clip-path="url(#fill-1-1)"><path d="M35 182.7 V150.5 H33.6 V140 H37.1 V131.6 Q30.8 124.6 45.5 104.3 Q60.2 124.6 53.9 131.6 V140 H57.4 V150.5 H61.6 V136.5 H65.1 V122.5 H67.9 V112 Q60.9 100.1 75.6 74.2 Q90.3 100.1 83.3 112 V122.5 H86.1 V136.5 H89.6 V150.5 V133 H93.1 V117.6 H96.6 V103.6 H98.7 V89.6 Q89.6 63.7 112 22.4 Q134.4 63.7 125.3 89.6 V103.6 H127.4 V117.6 H130.9 V133 H134.4 V150.5 V136.5 H137.9 V122.5 H140.7 V112 Q133.7 100.1 148.4 74.2 Q163.1 100.1 156.1 112 V122.5 H158.9 V136.5 H162.4 V150.5 H166.6 V140 H170.1 V131.6 Q163.8 124.6 178.5 104.3 Q193.2 124.6 186.9 131.6 V140 H190.4 V150.5 H189 V182.7 Z" fill="#e8bd72" fill-opacity=".42" fill-rule="nonzero"/><g fill="none" stroke="#ffe8b7" stroke-width="1.4"><path d="M35 182.7 V150.5 H33.6 V140 H37.1 V131.6 Q30.8 124.6 45.5 104.3 Q60.2 124.6 53.9 131.6 V140 H57.4 V150.5 H61.6 V136.5 H65.1 V122.5 H67.9 V112 Q60.9 100.1 75.6 74.2 Q90.3 100.1 83.3 112 V122.5 H86.1 V136.5 H89.6 V150.5 V133 H93.1 V117.6 H96.6 V103.6 H98.7 V89.6 Q89.6 63.7 112 22.4 Q134.4 63.7 125.3 89.6 V103.6 H127.4 V117.6 H130.9 V133 H134.4 V150.5 V136.5 H137.9 V122.5 H140.7 V112 Q133.7 100.1 148.4 74.2 Q163.1 100.1 156.1 112 V122.5 H158.9 V136.5 H162.4 V150.5 H166.6 V140 H170.1 V131.6 Q163.8 124.6 178.5 104.3 Q193.2 124.6 186.9 131.6 V140 H190.4 V150.5 H189 V182.7 Z"/><path d="M35 182.7 V150.5 H189 V182.7 M49.7 175 V161 M74.9 175 V161 M100.1 175 V157.5 M124.6 175 V157.5 M149.1 175 V161 M174.3 175 V161 M33.6 150.5 V140 H37.1 V131.6 Q30.8 124.6 45.5 104.3 Q60.2 124.6 53.9 131.6 V140 H57.4 V150.5 M166.6 150.5 V140 H170.1 V131.6 Q163.8 124.6 178.5 104.3 Q193.2 124.6 186.9 131.6 V140 H190.4 V150.5 M61.6 150.5 V136.5 H65.1 V122.5 H67.9 V112 Q60.9 100.1 75.6 74.2 Q90.3 100.1 83.3 112 V122.5 H86.1 V136.5 H89.6 V150.5 M134.4 150.5 V136.5 H137.9 V122.5 H140.7 V112 Q133.7 100.1 148.4 74.2 Q163.1 100.1 156.1 112 V122.5 H158.9 V136.5 H162.4 V150.5 M89.6 150.5 V133 H93.1 V117.6 H96.6 V103.6 H98.7 V89.6 Q89.6 63.7 112 22.4 M134.4 150.5 V133 H130.9 V117.6 H127.4 V103.6 H125.3 V89.6 Q134.4 63.7 112 22.4 M98.7 89.6 H125.3 M96.6 103.6 H127.4 M93.1 117.6 H130.9 M105.7 150.5 V129.5 H118.3 V150.5 M112 46.2 V77.7"/><path d="M103.6 61.6 H120.4 M100.1 75.6 H123.9 M67.9 112 H83.3 M140.7 112 H156.1 M37.1 131.6 H53.9 M170.1 131.6 H186.9"/></g></g><g clip-path="url(#shape-1-1)"><rect x="0" y="102.54999999999998" width="224" height="6" fill="#e8bd72" fill-opacity=".7"/><path d="M-80 102.54999999999998 Q-60 95.54999999999998 -40 102.54999999999998 T0 102.54999999999998 T40 102.54999999999998 T80 102.54999999999998 T120 102.54999999999998 T160 102.54999999999998 T200 102.54999999999998 T240 102.54999999999998 T280 102.54999999999998" fill="none" stroke="#fff8d6" stroke-width="2.6"/></g></g><text x="688" y="264" fill="#ccd4db" font-family="sans-serif" font-size="14">Angkor Wat · 100%</text><g transform="translate(728 279) scale(0.8333333333333334)"><defs><clipPath id="fill-1-2"><rect x="0" y="0" width="224" height="210"/></clipPath><clipPath id="shape-1-2"><path d="M35 182.7 V150.5 H33.6 V140 H37.1 V131.6 Q30.8 124.6 45.5 104.3 Q60.2 124.6 53.9 131.6 V140 H57.4 V150.5 H61.6 V136.5 H65.1 V122.5 H67.9 V112 Q60.9 100.1 75.6 74.2 Q90.3 100.1 83.3 112 V122.5 H86.1 V136.5 H89.6 V150.5 V133 H93.1 V117.6 H96.6 V103.6 H98.7 V89.6 Q89.6 63.7 112 22.4 Q134.4 63.7 125.3 89.6 V103.6 H127.4 V117.6 H130.9 V133 H134.4 V150.5 V136.5 H137.9 V122.5 H140.7 V112 Q133.7 100.1 148.4 74.2 Q163.1 100.1 156.1 112 V122.5 H158.9 V136.5 H162.4 V150.5 H166.6 V140 H170.1 V131.6 Q163.8 124.6 178.5 104.3 Q193.2 124.6 186.9 131.6 V140 H190.4 V150.5 H189 V182.7 Z" clip-rule="nonzero"/></clipPath></defs><g fill="none" stroke="#e9c587" stroke-width="1" opacity=".42"><path d="M35 182.7 V150.5 H33.6 V140 H37.1 V131.6 Q30.8 124.6 45.5 104.3 Q60.2 124.6 53.9 131.6 V140 H57.4 V150.5 H61.6 V136.5 H65.1 V122.5 H67.9 V112 Q60.9 100.1 75.6 74.2 Q90.3 100.1 83.3 112 V122.5 H86.1 V136.5 H89.6 V150.5 V133 H93.1 V117.6 H96.6 V103.6 H98.7 V89.6 Q89.6 63.7 112 22.4 Q134.4 63.7 125.3 89.6 V103.6 H127.4 V117.6 H130.9 V133 H134.4 V150.5 V136.5 H137.9 V122.5 H140.7 V112 Q133.7 100.1 148.4 74.2 Q163.1 100.1 156.1 112 V122.5 H158.9 V136.5 H162.4 V150.5 H166.6 V140 H170.1 V131.6 Q163.8 124.6 178.5 104.3 Q193.2 124.6 186.9 131.6 V140 H190.4 V150.5 H189 V182.7 Z"/><path d="M35 182.7 V150.5 H189 V182.7 M49.7 175 V161 M74.9 175 V161 M100.1 175 V157.5 M124.6 175 V157.5 M149.1 175 V161 M174.3 175 V161 M33.6 150.5 V140 H37.1 V131.6 Q30.8 124.6 45.5 104.3 Q60.2 124.6 53.9 131.6 V140 H57.4 V150.5 M166.6 150.5 V140 H170.1 V131.6 Q163.8 124.6 178.5 104.3 Q193.2 124.6 186.9 131.6 V140 H190.4 V150.5 M61.6 150.5 V136.5 H65.1 V122.5 H67.9 V112 Q60.9 100.1 75.6 74.2 Q90.3 100.1 83.3 112 V122.5 H86.1 V136.5 H89.6 V150.5 M134.4 150.5 V136.5 H137.9 V122.5 H140.7 V112 Q133.7 100.1 148.4 74.2 Q163.1 100.1 156.1 112 V122.5 H158.9 V136.5 H162.4 V150.5 M89.6 150.5 V133 H93.1 V117.6 H96.6 V103.6 H98.7 V89.6 Q89.6 63.7 112 22.4 M134.4 150.5 V133 H130.9 V117.6 H127.4 V103.6 H125.3 V89.6 Q134.4 63.7 112 22.4 M98.7 89.6 H125.3 M96.6 103.6 H127.4 M93.1 117.6 H130.9 M105.7 150.5 V129.5 H118.3 V150.5 M112 46.2 V77.7"/><path d="M103.6 61.6 H120.4 M100.1 75.6 H123.9 M67.9 112 H83.3 M140.7 112 H156.1 M37.1 131.6 H53.9 M170.1 131.6 H186.9"/></g><g clip-path="url(#fill-1-2)"><path d="M35 182.7 V150.5 H33.6 V140 H37.1 V131.6 Q30.8 124.6 45.5 104.3 Q60.2 124.6 53.9 131.6 V140 H57.4 V150.5 H61.6 V136.5 H65.1 V122.5 H67.9 V112 Q60.9 100.1 75.6 74.2 Q90.3 100.1 83.3 112 V122.5 H86.1 V136.5 H89.6 V150.5 V133 H93.1 V117.6 H96.6 V103.6 H98.7 V89.6 Q89.6 63.7 112 22.4 Q134.4 63.7 125.3 89.6 V103.6 H127.4 V117.6 H130.9 V133 H134.4 V150.5 V136.5 H137.9 V122.5 H140.7 V112 Q133.7 100.1 148.4 74.2 Q163.1 100.1 156.1 112 V122.5 H158.9 V136.5 H162.4 V150.5 H166.6 V140 H170.1 V131.6 Q163.8 124.6 178.5 104.3 Q193.2 124.6 186.9 131.6 V140 H190.4 V150.5 H189 V182.7 Z" fill="#e8bd72" fill-opacity=".42" fill-rule="nonzero"/><g fill="none" stroke="#ffe8b7" stroke-width="1.4"><path d="M35 182.7 V150.5 H33.6 V140 H37.1 V131.6 Q30.8 124.6 45.5 104.3 Q60.2 124.6 53.9 131.6 V140 H57.4 V150.5 H61.6 V136.5 H65.1 V122.5 H67.9 V112 Q60.9 100.1 75.6 74.2 Q90.3 100.1 83.3 112 V122.5 H86.1 V136.5 H89.6 V150.5 V133 H93.1 V117.6 H96.6 V103.6 H98.7 V89.6 Q89.6 63.7 112 22.4 Q134.4 63.7 125.3 89.6 V103.6 H127.4 V117.6 H130.9 V133 H134.4 V150.5 V136.5 H137.9 V122.5 H140.7 V112 Q133.7 100.1 148.4 74.2 Q163.1 100.1 156.1 112 V122.5 H158.9 V136.5 H162.4 V150.5 H166.6 V140 H170.1 V131.6 Q163.8 124.6 178.5 104.3 Q193.2 124.6 186.9 131.6 V140 H190.4 V150.5 H189 V182.7 Z"/><path d="M35 182.7 V150.5 H189 V182.7 M49.7 175 V161 M74.9 175 V161 M100.1 175 V157.5 M124.6 175 V157.5 M149.1 175 V161 M174.3 175 V161 M33.6 150.5 V140 H37.1 V131.6 Q30.8 124.6 45.5 104.3 Q60.2 124.6 53.9 131.6 V140 H57.4 V150.5 M166.6 150.5 V140 H170.1 V131.6 Q163.8 124.6 178.5 104.3 Q193.2 124.6 186.9 131.6 V140 H190.4 V150.5 M61.6 150.5 V136.5 H65.1 V122.5 H67.9 V112 Q60.9 100.1 75.6 74.2 Q90.3 100.1 83.3 112 V122.5 H86.1 V136.5 H89.6 V150.5 M134.4 150.5 V136.5 H137.9 V122.5 H140.7 V112 Q133.7 100.1 148.4 74.2 Q163.1 100.1 156.1 112 V122.5 H158.9 V136.5 H162.4 V150.5 M89.6 150.5 V133 H93.1 V117.6 H96.6 V103.6 H98.7 V89.6 Q89.6 63.7 112 22.4 M134.4 150.5 V133 H130.9 V117.6 H127.4 V103.6 H125.3 V89.6 Q134.4 63.7 112 22.4 M98.7 89.6 H125.3 M96.6 103.6 H127.4 M93.1 117.6 H130.9 M105.7 150.5 V129.5 H118.3 V150.5 M112 46.2 V77.7"/><path d="M103.6 61.6 H120.4 M100.1 75.6 H123.9 M67.9 112 H83.3 M140.7 112 H156.1 M37.1 131.6 H53.9 M170.1 131.6 H186.9"/></g></g></g><text x="28" y="498" fill="#ccd4db" font-family="sans-serif" font-size="14">Forbidden City · 0%</text><g transform="translate(68 513) scale(0.8620689655172413)"><defs><clipPath id="fill-2-0"><rect x="0" y="186.2" width="224" height="203"/></clipPath><clipPath id="shape-2-0"><path d="M29.4 186.2 V173.6 H39.9 V159.6 H56 V119 H30.8 L17.5 105.7 Q39.9 118.3 57.4 102.9 L68.6 95.9 V78.4 H55.3 L42 65.8 Q57.4 77 71.4 61.6 L112 33.6 L152.6 61.6 Q166.6 77 182 65.8 L168.7 78.4 H155.4 V95.9 L166.6 102.9 Q184.1 118.3 206.5 105.7 L193.2 119 H168 V159.6 H184.1 V173.6 H194.6 V186.2 Z" clip-rule="nonzero"/></clipPath></defs><g fill="none" stroke="#e9c587" stroke-width="1" opacity=".42"><path d="M29.4 186.2 V173.6 H39.9 V159.6 H56 V119 H30.8 L17.5 105.7 Q39.9 118.3 57.4 102.9 L68.6 95.9 V78.4 H55.3 L42 65.8 Q57.4 77 71.4 61.6 L112 33.6 L152.6 61.6 Q166.6 77 182 65.8 L168.7 78.4 H155.4 V95.9 L166.6 102.9 Q184.1 118.3 206.5 105.7 L193.2 119 H168 V159.6 H184.1 V173.6 H194.6 V186.2 Z"/><path d="M56 159.6 V116.2 M83.3 159.6 V116.2 M140.7 159.6 V116.2 M168 159.6 V116.2 M100.8 159.6 V129.5 H123.2 V159.6 M17.5 105.7 Q39.9 118.3 57.4 102.9 L112 70 L166.6 102.9 Q184.1 118.3 206.5 105.7 L193.2 119 H30.8 Z M68.6 95.9 V74.9 M155.4 95.9 V74.9 M80.5 146.3 H143.5 M42 65.8 Q57.4 77 71.4 61.6 L112 33.6 L152.6 61.6 Q166.6 77 182 65.8 L168.7 78.4 H55.3 Z M87.5 33.6 H136.5 M112 33.6 V19.6 M99.4 186.2 V159.6 M124.6 186.2 V159.6 M68.6 73.5 L112 40.6 L155.4 73.5"/><path d="M56 168 H96.6 M127.4 168 H168 M105 168 H119 M102.9 177.1 H121.1 M50.4 110.6 L102.9 76.3 M173.6 110.6 L121.1 76.3 M81.2 70.7 L105 46.2 M142.8 70.7 L119 46.2"/></g><g clip-path="url(#fill-2-0)"><path d="M29.4 186.2 V173.6 H39.9 V159.6 H56 V119 H30.8 L17.5 105.7 Q39.9 118.3 57.4 102.9 L68.6 95.9 V78.4 H55.3 L42 65.8 Q57.4 77 71.4 61.6 L112 33.6 L152.6 61.6 Q166.6 77 182 65.8 L168.7 78.4 H155.4 V95.9 L166.6 102.9 Q184.1 118.3 206.5 105.7 L193.2 119 H168 V159.6 H184.1 V173.6 H194.6 V186.2 Z" fill="#e8bd72" fill-opacity=".42" fill-rule="nonzero"/><g fill="none" stroke="#ffe8b7" stroke-width="1.4"><path d="M29.4 186.2 V173.6 H39.9 V159.6 H56 V119 H30.8 L17.5 105.7 Q39.9 118.3 57.4 102.9 L68.6 95.9 V78.4 H55.3 L42 65.8 Q57.4 77 71.4 61.6 L112 33.6 L152.6 61.6 Q166.6 77 182 65.8 L168.7 78.4 H155.4 V95.9 L166.6 102.9 Q184.1 118.3 206.5 105.7 L193.2 119 H168 V159.6 H184.1 V173.6 H194.6 V186.2 Z"/><path d="M56 159.6 V116.2 M83.3 159.6 V116.2 M140.7 159.6 V116.2 M168 159.6 V116.2 M100.8 159.6 V129.5 H123.2 V159.6 M17.5 105.7 Q39.9 118.3 57.4 102.9 L112 70 L166.6 102.9 Q184.1 118.3 206.5 105.7 L193.2 119 H30.8 Z M68.6 95.9 V74.9 M155.4 95.9 V74.9 M80.5 146.3 H143.5 M42 65.8 Q57.4 77 71.4 61.6 L112 33.6 L152.6 61.6 Q166.6 77 182 65.8 L168.7 78.4 H55.3 Z M87.5 33.6 H136.5 M112 33.6 V19.6 M99.4 186.2 V159.6 M124.6 186.2 V159.6 M68.6 73.5 L112 40.6 L155.4 73.5"/><path d="M56 168 H96.6 M127.4 168 H168 M105 168 H119 M102.9 177.1 H121.1 M50.4 110.6 L102.9 76.3 M173.6 110.6 L121.1 76.3 M81.2 70.7 L105 46.2 M142.8 70.7 L119 46.2"/></g></g><g clip-path="url(#shape-2-0)"><rect x="0" y="180.2" width="224" height="6" fill="#e8bd72" fill-opacity=".7"/><path d="M-80 180.2 Q-60 173.2 -40 180.2 T0 180.2 T40 180.2 T80 180.2 T120 180.2 T160 180.2 T200 180.2 T240 180.2 T280 180.2" fill="none" stroke="#fff8d6" stroke-width="2.6"/></g></g><text x="358" y="498" fill="#ccd4db" font-family="sans-serif" font-size="14">Forbidden City · 50%</text><g transform="translate(398 513) scale(0.8620689655172413)"><defs><clipPath id="fill-2-1"><rect x="0" y="102.89999999999999" width="224" height="203"/></clipPath><clipPath id="shape-2-1"><path d="M29.4 186.2 V173.6 H39.9 V159.6 H56 V119 H30.8 L17.5 105.7 Q39.9 118.3 57.4 102.9 L68.6 95.9 V78.4 H55.3 L42 65.8 Q57.4 77 71.4 61.6 L112 33.6 L152.6 61.6 Q166.6 77 182 65.8 L168.7 78.4 H155.4 V95.9 L166.6 102.9 Q184.1 118.3 206.5 105.7 L193.2 119 H168 V159.6 H184.1 V173.6 H194.6 V186.2 Z" clip-rule="nonzero"/></clipPath></defs><g fill="none" stroke="#e9c587" stroke-width="1" opacity=".42"><path d="M29.4 186.2 V173.6 H39.9 V159.6 H56 V119 H30.8 L17.5 105.7 Q39.9 118.3 57.4 102.9 L68.6 95.9 V78.4 H55.3 L42 65.8 Q57.4 77 71.4 61.6 L112 33.6 L152.6 61.6 Q166.6 77 182 65.8 L168.7 78.4 H155.4 V95.9 L166.6 102.9 Q184.1 118.3 206.5 105.7 L193.2 119 H168 V159.6 H184.1 V173.6 H194.6 V186.2 Z"/><path d="M56 159.6 V116.2 M83.3 159.6 V116.2 M140.7 159.6 V116.2 M168 159.6 V116.2 M100.8 159.6 V129.5 H123.2 V159.6 M17.5 105.7 Q39.9 118.3 57.4 102.9 L112 70 L166.6 102.9 Q184.1 118.3 206.5 105.7 L193.2 119 H30.8 Z M68.6 95.9 V74.9 M155.4 95.9 V74.9 M80.5 146.3 H143.5 M42 65.8 Q57.4 77 71.4 61.6 L112 33.6 L152.6 61.6 Q166.6 77 182 65.8 L168.7 78.4 H55.3 Z M87.5 33.6 H136.5 M112 33.6 V19.6 M99.4 186.2 V159.6 M124.6 186.2 V159.6 M68.6 73.5 L112 40.6 L155.4 73.5"/><path d="M56 168 H96.6 M127.4 168 H168 M105 168 H119 M102.9 177.1 H121.1 M50.4 110.6 L102.9 76.3 M173.6 110.6 L121.1 76.3 M81.2 70.7 L105 46.2 M142.8 70.7 L119 46.2"/></g><g clip-path="url(#fill-2-1)"><path d="M29.4 186.2 V173.6 H39.9 V159.6 H56 V119 H30.8 L17.5 105.7 Q39.9 118.3 57.4 102.9 L68.6 95.9 V78.4 H55.3 L42 65.8 Q57.4 77 71.4 61.6 L112 33.6 L152.6 61.6 Q166.6 77 182 65.8 L168.7 78.4 H155.4 V95.9 L166.6 102.9 Q184.1 118.3 206.5 105.7 L193.2 119 H168 V159.6 H184.1 V173.6 H194.6 V186.2 Z" fill="#e8bd72" fill-opacity=".42" fill-rule="nonzero"/><g fill="none" stroke="#ffe8b7" stroke-width="1.4"><path d="M29.4 186.2 V173.6 H39.9 V159.6 H56 V119 H30.8 L17.5 105.7 Q39.9 118.3 57.4 102.9 L68.6 95.9 V78.4 H55.3 L42 65.8 Q57.4 77 71.4 61.6 L112 33.6 L152.6 61.6 Q166.6 77 182 65.8 L168.7 78.4 H155.4 V95.9 L166.6 102.9 Q184.1 118.3 206.5 105.7 L193.2 119 H168 V159.6 H184.1 V173.6 H194.6 V186.2 Z"/><path d="M56 159.6 V116.2 M83.3 159.6 V116.2 M140.7 159.6 V116.2 M168 159.6 V116.2 M100.8 159.6 V129.5 H123.2 V159.6 M17.5 105.7 Q39.9 118.3 57.4 102.9 L112 70 L166.6 102.9 Q184.1 118.3 206.5 105.7 L193.2 119 H30.8 Z M68.6 95.9 V74.9 M155.4 95.9 V74.9 M80.5 146.3 H143.5 M42 65.8 Q57.4 77 71.4 61.6 L112 33.6 L152.6 61.6 Q166.6 77 182 65.8 L168.7 78.4 H55.3 Z M87.5 33.6 H136.5 M112 33.6 V19.6 M99.4 186.2 V159.6 M124.6 186.2 V159.6 M68.6 73.5 L112 40.6 L155.4 73.5"/><path d="M56 168 H96.6 M127.4 168 H168 M105 168 H119 M102.9 177.1 H121.1 M50.4 110.6 L102.9 76.3 M173.6 110.6 L121.1 76.3 M81.2 70.7 L105 46.2 M142.8 70.7 L119 46.2"/></g></g><g clip-path="url(#shape-2-1)"><rect x="0" y="102.89999999999999" width="224" height="6" fill="#e8bd72" fill-opacity=".7"/><path d="M-80 102.89999999999999 Q-60 95.89999999999999 -40 102.89999999999999 T0 102.89999999999999 T40 102.89999999999999 T80 102.89999999999999 T120 102.89999999999999 T160 102.89999999999999 T200 102.89999999999999 T240 102.89999999999999 T280 102.89999999999999" fill="none" stroke="#fff8d6" stroke-width="2.6"/></g></g><text x="688" y="498" fill="#ccd4db" font-family="sans-serif" font-size="14">Forbidden City · 100%</text><g transform="translate(728 513) scale(0.8620689655172413)"><defs><clipPath id="fill-2-2"><rect x="0" y="0" width="224" height="203"/></clipPath><clipPath id="shape-2-2"><path d="M29.4 186.2 V173.6 H39.9 V159.6 H56 V119 H30.8 L17.5 105.7 Q39.9 118.3 57.4 102.9 L68.6 95.9 V78.4 H55.3 L42 65.8 Q57.4 77 71.4 61.6 L112 33.6 L152.6 61.6 Q166.6 77 182 65.8 L168.7 78.4 H155.4 V95.9 L166.6 102.9 Q184.1 118.3 206.5 105.7 L193.2 119 H168 V159.6 H184.1 V173.6 H194.6 V186.2 Z" clip-rule="nonzero"/></clipPath></defs><g fill="none" stroke="#e9c587" stroke-width="1" opacity=".42"><path d="M29.4 186.2 V173.6 H39.9 V159.6 H56 V119 H30.8 L17.5 105.7 Q39.9 118.3 57.4 102.9 L68.6 95.9 V78.4 H55.3 L42 65.8 Q57.4 77 71.4 61.6 L112 33.6 L152.6 61.6 Q166.6 77 182 65.8 L168.7 78.4 H155.4 V95.9 L166.6 102.9 Q184.1 118.3 206.5 105.7 L193.2 119 H168 V159.6 H184.1 V173.6 H194.6 V186.2 Z"/><path d="M56 159.6 V116.2 M83.3 159.6 V116.2 M140.7 159.6 V116.2 M168 159.6 V116.2 M100.8 159.6 V129.5 H123.2 V159.6 M17.5 105.7 Q39.9 118.3 57.4 102.9 L112 70 L166.6 102.9 Q184.1 118.3 206.5 105.7 L193.2 119 H30.8 Z M68.6 95.9 V74.9 M155.4 95.9 V74.9 M80.5 146.3 H143.5 M42 65.8 Q57.4 77 71.4 61.6 L112 33.6 L152.6 61.6 Q166.6 77 182 65.8 L168.7 78.4 H55.3 Z M87.5 33.6 H136.5 M112 33.6 V19.6 M99.4 186.2 V159.6 M124.6 186.2 V159.6 M68.6 73.5 L112 40.6 L155.4 73.5"/><path d="M56 168 H96.6 M127.4 168 H168 M105 168 H119 M102.9 177.1 H121.1 M50.4 110.6 L102.9 76.3 M173.6 110.6 L121.1 76.3 M81.2 70.7 L105 46.2 M142.8 70.7 L119 46.2"/></g><g clip-path="url(#fill-2-2)"><path d="M29.4 186.2 V173.6 H39.9 V159.6 H56 V119 H30.8 L17.5 105.7 Q39.9 118.3 57.4 102.9 L68.6 95.9 V78.4 H55.3 L42 65.8 Q57.4 77 71.4 61.6 L112 33.6 L152.6 61.6 Q166.6 77 182 65.8 L168.7 78.4 H155.4 V95.9 L166.6 102.9 Q184.1 118.3 206.5 105.7 L193.2 119 H168 V159.6 H184.1 V173.6 H194.6 V186.2 Z" fill="#e8bd72" fill-opacity=".42" fill-rule="nonzero"/><g fill="none" stroke="#ffe8b7" stroke-width="1.4"><path d="M29.4 186.2 V173.6 H39.9 V159.6 H56 V119 H30.8 L17.5 105.7 Q39.9 118.3 57.4 102.9 L68.6 95.9 V78.4 H55.3 L42 65.8 Q57.4 77 71.4 61.6 L112 33.6 L152.6 61.6 Q166.6 77 182 65.8 L168.7 78.4 H155.4 V95.9 L166.6 102.9 Q184.1 118.3 206.5 105.7 L193.2 119 H168 V159.6 H184.1 V173.6 H194.6 V186.2 Z"/><path d="M56 159.6 V116.2 M83.3 159.6 V116.2 M140.7 159.6 V116.2 M168 159.6 V116.2 M100.8 159.6 V129.5 H123.2 V159.6 M17.5 105.7 Q39.9 118.3 57.4 102.9 L112 70 L166.6 102.9 Q184.1 118.3 206.5 105.7 L193.2 119 H30.8 Z M68.6 95.9 V74.9 M155.4 95.9 V74.9 M80.5 146.3 H143.5 M42 65.8 Q57.4 77 71.4 61.6 L112 33.6 L152.6 61.6 Q166.6 77 182 65.8 L168.7 78.4 H55.3 Z M87.5 33.6 H136.5 M112 33.6 V19.6 M99.4 186.2 V159.6 M124.6 186.2 V159.6 M68.6 73.5 L112 40.6 L155.4 73.5"/><path d="M56 168 H96.6 M127.4 168 H168 M105 168 H119 M102.9 177.1 H121.1 M50.4 110.6 L102.9 76.3 M173.6 110.6 L121.1 76.3 M81.2 70.7 L105 46.2 M142.8 70.7 L119 46.2"/></g></g></g><text x="28" y="732" fill="#ccd4db" font-family="sans-serif" font-size="14">Machu Picchu · 0%</text><g transform="translate(68 747) scale(0.8333333333333334)"><defs><clipPath id="fill-3-0"><rect x="0" y="190.4" width="224" height="210"/></clipPath><clipPath id="shape-3-0"><path d="M17.5 190.4 L28 173.6 L37.8 156.8 L38.5 140 V110.6 L65.1 97.3 L84 107.8 L93.8 74.9 L111.3 52.5 L124.6 65.1 L143.5 24.5 L166.6 53.9 L180.6 111.3 L205.8 153.3 L189 190.4 Z" clip-rule="nonzero"/></clipPath></defs><g fill="none" stroke="#e9c587" stroke-width="1" opacity=".42"><path d="M17.5 190.4 L28 173.6 L37.8 156.8 L38.5 140 V110.6 L65.1 97.3 L84 107.8 L93.8 74.9 L111.3 52.5 L124.6 65.1 L143.5 24.5 L166.6 53.9 L180.6 111.3 L205.8 153.3 L189 190.4 Z"/><path d="M70.7 134.4 L98.7 86.1 L112.7 89.6 L143.5 24.5 L166.6 53.9 L180.6 111.3 L205.8 153.3 M84 126 L93.8 74.9 L111.3 52.5 L124.6 65.1 M143.5 24.5 L147 72.1 L133 113.4 M38.5 140 V110.6 L65.1 97.3 L88.9 110.6 V139.3 M38.5 110.6 H88.9 M65.1 97.3 V139.3 M95.9 173.6 V126.7 L119.7 116.2 L145.6 126.7 V173.6 M95.9 126.7 H145.6 M119.7 116.2 V149.1 M107.1 173.6 V150.5 H119.7 V173.6 M56 156.8 V140 M74.9 173.6 V156.8 M159.6 173.6 L180.6 152.6 H198.1"/><path d="M56 121.8 H72.8 M56 133 H72.8 M106.4 136.5 H135.1 M127.4 162.4 H141.4 M44.8 172.9 V158.2 M145.6 58.1 L158.2 83.3 L156.1 112 M177.1 134.4 L189 154.7"/></g><g clip-path="url(#fill-3-0)"><path d="M17.5 190.4 L28 173.6 L37.8 156.8 L38.5 140 V110.6 L65.1 97.3 L84 107.8 L93.8 74.9 L111.3 52.5 L124.6 65.1 L143.5 24.5 L166.6 53.9 L180.6 111.3 L205.8 153.3 L189 190.4 Z" fill="#e8bd72" fill-opacity=".42" fill-rule="nonzero"/><g fill="none" stroke="#ffe8b7" stroke-width="1.4"><path d="M17.5 190.4 L28 173.6 L37.8 156.8 L38.5 140 V110.6 L65.1 97.3 L84 107.8 L93.8 74.9 L111.3 52.5 L124.6 65.1 L143.5 24.5 L166.6 53.9 L180.6 111.3 L205.8 153.3 L189 190.4 Z"/><path d="M70.7 134.4 L98.7 86.1 L112.7 89.6 L143.5 24.5 L166.6 53.9 L180.6 111.3 L205.8 153.3 M84 126 L93.8 74.9 L111.3 52.5 L124.6 65.1 M143.5 24.5 L147 72.1 L133 113.4 M38.5 140 V110.6 L65.1 97.3 L88.9 110.6 V139.3 M38.5 110.6 H88.9 M65.1 97.3 V139.3 M95.9 173.6 V126.7 L119.7 116.2 L145.6 126.7 V173.6 M95.9 126.7 H145.6 M119.7 116.2 V149.1 M107.1 173.6 V150.5 H119.7 V173.6 M56 156.8 V140 M74.9 173.6 V156.8 M159.6 173.6 L180.6 152.6 H198.1"/><path d="M56 121.8 H72.8 M56 133 H72.8 M106.4 136.5 H135.1 M127.4 162.4 H141.4 M44.8 172.9 V158.2 M145.6 58.1 L158.2 83.3 L156.1 112 M177.1 134.4 L189 154.7"/></g></g><g clip-path="url(#shape-3-0)"><rect x="0" y="184.4" width="224" height="6" fill="#e8bd72" fill-opacity=".7"/><path d="M-80 184.4 Q-60 177.4 -40 184.4 T0 184.4 T40 184.4 T80 184.4 T120 184.4 T160 184.4 T200 184.4 T240 184.4 T280 184.4" fill="none" stroke="#fff8d6" stroke-width="2.6"/></g></g><text x="358" y="732" fill="#ccd4db" font-family="sans-serif" font-size="14">Machu Picchu · 50%</text><g transform="translate(398 747) scale(0.8333333333333334)"><defs><clipPath id="fill-3-1"><rect x="0" y="107.45" width="224" height="210"/></clipPath><clipPath id="shape-3-1"><path d="M17.5 190.4 L28 173.6 L37.8 156.8 L38.5 140 V110.6 L65.1 97.3 L84 107.8 L93.8 74.9 L111.3 52.5 L124.6 65.1 L143.5 24.5 L166.6 53.9 L180.6 111.3 L205.8 153.3 L189 190.4 Z" clip-rule="nonzero"/></clipPath></defs><g fill="none" stroke="#e9c587" stroke-width="1" opacity=".42"><path d="M17.5 190.4 L28 173.6 L37.8 156.8 L38.5 140 V110.6 L65.1 97.3 L84 107.8 L93.8 74.9 L111.3 52.5 L124.6 65.1 L143.5 24.5 L166.6 53.9 L180.6 111.3 L205.8 153.3 L189 190.4 Z"/><path d="M70.7 134.4 L98.7 86.1 L112.7 89.6 L143.5 24.5 L166.6 53.9 L180.6 111.3 L205.8 153.3 M84 126 L93.8 74.9 L111.3 52.5 L124.6 65.1 M143.5 24.5 L147 72.1 L133 113.4 M38.5 140 V110.6 L65.1 97.3 L88.9 110.6 V139.3 M38.5 110.6 H88.9 M65.1 97.3 V139.3 M95.9 173.6 V126.7 L119.7 116.2 L145.6 126.7 V173.6 M95.9 126.7 H145.6 M119.7 116.2 V149.1 M107.1 173.6 V150.5 H119.7 V173.6 M56 156.8 V140 M74.9 173.6 V156.8 M159.6 173.6 L180.6 152.6 H198.1"/><path d="M56 121.8 H72.8 M56 133 H72.8 M106.4 136.5 H135.1 M127.4 162.4 H141.4 M44.8 172.9 V158.2 M145.6 58.1 L158.2 83.3 L156.1 112 M177.1 134.4 L189 154.7"/></g><g clip-path="url(#fill-3-1)"><path d="M17.5 190.4 L28 173.6 L37.8 156.8 L38.5 140 V110.6 L65.1 97.3 L84 107.8 L93.8 74.9 L111.3 52.5 L124.6 65.1 L143.5 24.5 L166.6 53.9 L180.6 111.3 L205.8 153.3 L189 190.4 Z" fill="#e8bd72" fill-opacity=".42" fill-rule="nonzero"/><g fill="none" stroke="#ffe8b7" stroke-width="1.4"><path d="M17.5 190.4 L28 173.6 L37.8 156.8 L38.5 140 V110.6 L65.1 97.3 L84 107.8 L93.8 74.9 L111.3 52.5 L124.6 65.1 L143.5 24.5 L166.6 53.9 L180.6 111.3 L205.8 153.3 L189 190.4 Z"/><path d="M70.7 134.4 L98.7 86.1 L112.7 89.6 L143.5 24.5 L166.6 53.9 L180.6 111.3 L205.8 153.3 M84 126 L93.8 74.9 L111.3 52.5 L124.6 65.1 M143.5 24.5 L147 72.1 L133 113.4 M38.5 140 V110.6 L65.1 97.3 L88.9 110.6 V139.3 M38.5 110.6 H88.9 M65.1 97.3 V139.3 M95.9 173.6 V126.7 L119.7 116.2 L145.6 126.7 V173.6 M95.9 126.7 H145.6 M119.7 116.2 V149.1 M107.1 173.6 V150.5 H119.7 V173.6 M56 156.8 V140 M74.9 173.6 V156.8 M159.6 173.6 L180.6 152.6 H198.1"/><path d="M56 121.8 H72.8 M56 133 H72.8 M106.4 136.5 H135.1 M127.4 162.4 H141.4 M44.8 172.9 V158.2 M145.6 58.1 L158.2 83.3 L156.1 112 M177.1 134.4 L189 154.7"/></g></g><g clip-path="url(#shape-3-1)"><rect x="0" y="107.45" width="224" height="6" fill="#e8bd72" fill-opacity=".7"/><path d="M-80 107.45 Q-60 100.45 -40 107.45 T0 107.45 T40 107.45 T80 107.45 T120 107.45 T160 107.45 T200 107.45 T240 107.45 T280 107.45" fill="none" stroke="#fff8d6" stroke-width="2.6"/></g></g><text x="688" y="732" fill="#ccd4db" font-family="sans-serif" font-size="14">Machu Picchu · 100%</text><g transform="translate(728 747) scale(0.8333333333333334)"><defs><clipPath id="fill-3-2"><rect x="0" y="0" width="224" height="210"/></clipPath><clipPath id="shape-3-2"><path d="M17.5 190.4 L28 173.6 L37.8 156.8 L38.5 140 V110.6 L65.1 97.3 L84 107.8 L93.8 74.9 L111.3 52.5 L124.6 65.1 L143.5 24.5 L166.6 53.9 L180.6 111.3 L205.8 153.3 L189 190.4 Z" clip-rule="nonzero"/></clipPath></defs><g fill="none" stroke="#e9c587" stroke-width="1" opacity=".42"><path d="M17.5 190.4 L28 173.6 L37.8 156.8 L38.5 140 V110.6 L65.1 97.3 L84 107.8 L93.8 74.9 L111.3 52.5 L124.6 65.1 L143.5 24.5 L166.6 53.9 L180.6 111.3 L205.8 153.3 L189 190.4 Z"/><path d="M70.7 134.4 L98.7 86.1 L112.7 89.6 L143.5 24.5 L166.6 53.9 L180.6 111.3 L205.8 153.3 M84 126 L93.8 74.9 L111.3 52.5 L124.6 65.1 M143.5 24.5 L147 72.1 L133 113.4 M38.5 140 V110.6 L65.1 97.3 L88.9 110.6 V139.3 M38.5 110.6 H88.9 M65.1 97.3 V139.3 M95.9 173.6 V126.7 L119.7 116.2 L145.6 126.7 V173.6 M95.9 126.7 H145.6 M119.7 116.2 V149.1 M107.1 173.6 V150.5 H119.7 V173.6 M56 156.8 V140 M74.9 173.6 V156.8 M159.6 173.6 L180.6 152.6 H198.1"/><path d="M56 121.8 H72.8 M56 133 H72.8 M106.4 136.5 H135.1 M127.4 162.4 H141.4 M44.8 172.9 V158.2 M145.6 58.1 L158.2 83.3 L156.1 112 M177.1 134.4 L189 154.7"/></g><g clip-path="url(#fill-3-2)"><path d="M17.5 190.4 L28 173.6 L37.8 156.8 L38.5 140 V110.6 L65.1 97.3 L84 107.8 L93.8 74.9 L111.3 52.5 L124.6 65.1 L143.5 24.5 L166.6 53.9 L180.6 111.3 L205.8 153.3 L189 190.4 Z" fill="#e8bd72" fill-opacity=".42" fill-rule="nonzero"/><g fill="none" stroke="#ffe8b7" stroke-width="1.4"><path d="M17.5 190.4 L28 173.6 L37.8 156.8 L38.5 140 V110.6 L65.1 97.3 L84 107.8 L93.8 74.9 L111.3 52.5 L124.6 65.1 L143.5 24.5 L166.6 53.9 L180.6 111.3 L205.8 153.3 L189 190.4 Z"/><path d="M70.7 134.4 L98.7 86.1 L112.7 89.6 L143.5 24.5 L166.6 53.9 L180.6 111.3 L205.8 153.3 M84 126 L93.8 74.9 L111.3 52.5 L124.6 65.1 M143.5 24.5 L147 72.1 L133 113.4 M38.5 140 V110.6 L65.1 97.3 L88.9 110.6 V139.3 M38.5 110.6 H88.9 M65.1 97.3 V139.3 M95.9 173.6 V126.7 L119.7 116.2 L145.6 126.7 V173.6 M95.9 126.7 H145.6 M119.7 116.2 V149.1 M107.1 173.6 V150.5 H119.7 V173.6 M56 156.8 V140 M74.9 173.6 V156.8 M159.6 173.6 L180.6 152.6 H198.1"/><path d="M56 121.8 H72.8 M56 133 H72.8 M106.4 136.5 H135.1 M127.4 162.4 H141.4 M44.8 172.9 V158.2 M145.6 58.1 L158.2 83.3 L156.1 112 M177.1 134.4 L189 154.7"/></g></g></g><text x="28" y="966" fill="#ccd4db" font-family="sans-serif" font-size="14">Sydney Opera House · 0%</text><g transform="translate(68 981) scale(0.8620689655172413)"><defs><clipPath id="fill-4-0"><rect x="0" y="170.8" width="224" height="203"/></clipPath><clipPath id="shape-4-0"><path d="M24.5 170.8 V156.1 H38.5 L49 143.5 H32.9 Q32.2 105 45.5 83.3 Q63 91 77 105.7 Q84.7 63.7 102.9 35.7 Q101.5 75.6 123.2 114.1 Q140 48.3 161 22.4 Q144.9 103.6 197.4 143.5 H189.7 L199.5 156.1 V170.8 Z" clip-rule="nonzero"/></clipPath></defs><g fill="none" stroke="#e9c587" stroke-width="1" opacity=".42"><path d="M24.5 170.8 V156.1 H38.5 L49 143.5 H32.9 Q32.2 105 45.5 83.3 Q63 91 77 105.7 Q84.7 63.7 102.9 35.7 Q101.5 75.6 123.2 114.1 Q140 48.3 161 22.4 Q144.9 103.6 197.4 143.5 H189.7 L199.5 156.1 V170.8 Z"/><path d="M24.5 170.8 H199.5 V156.1 H24.5 Z M38.5 156.1 L49 143.5 H189.7 M32.9 143.5 Q32.2 105 45.5 83.3 Q84 99.4 101.5 143.5 Z M67.9 143.5 Q75.6 73.5 102.9 35.7 Q100.8 105.7 147 143.5 Z M113.4 143.5 Q133.7 53.9 161 22.4 Q144.9 103.6 197.4 143.5 Z M45.5 83.3 Q56 123.9 88.2 143.5 M102.9 35.7 Q107.1 111.3 130.9 143.5 M161 22.4 Q149.1 107.8 179.2 143.5 M42 163.1 H189"/><path d="M102.9 35.7 Q90.3 100.8 94.5 143.5 M161 22.4 Q138.6 106.4 152.6 143.5 M45.5 83.3 Q42 119 56 143.5 M49 149.8 H186.9 M61.6 159.6 V166.6 M80.5 159.6 V166.6 M99.4 159.6 V166.6 M118.3 159.6 V166.6 M137.2 159.6 V166.6 M156.1 159.6 V166.6"/></g><g clip-path="url(#fill-4-0)"><path d="M24.5 170.8 V156.1 H38.5 L49 143.5 H32.9 Q32.2 105 45.5 83.3 Q63 91 77 105.7 Q84.7 63.7 102.9 35.7 Q101.5 75.6 123.2 114.1 Q140 48.3 161 22.4 Q144.9 103.6 197.4 143.5 H189.7 L199.5 156.1 V170.8 Z" fill="#e8bd72" fill-opacity=".42" fill-rule="nonzero"/><g fill="none" stroke="#ffe8b7" stroke-width="1.4"><path d="M24.5 170.8 V156.1 H38.5 L49 143.5 H32.9 Q32.2 105 45.5 83.3 Q63 91 77 105.7 Q84.7 63.7 102.9 35.7 Q101.5 75.6 123.2 114.1 Q140 48.3 161 22.4 Q144.9 103.6 197.4 143.5 H189.7 L199.5 156.1 V170.8 Z"/><path d="M24.5 170.8 H199.5 V156.1 H24.5 Z M38.5 156.1 L49 143.5 H189.7 M32.9 143.5 Q32.2 105 45.5 83.3 Q84 99.4 101.5 143.5 Z M67.9 143.5 Q75.6 73.5 102.9 35.7 Q100.8 105.7 147 143.5 Z M113.4 143.5 Q133.7 53.9 161 22.4 Q144.9 103.6 197.4 143.5 Z M45.5 83.3 Q56 123.9 88.2 143.5 M102.9 35.7 Q107.1 111.3 130.9 143.5 M161 22.4 Q149.1 107.8 179.2 143.5 M42 163.1 H189"/><path d="M102.9 35.7 Q90.3 100.8 94.5 143.5 M161 22.4 Q138.6 106.4 152.6 143.5 M45.5 83.3 Q42 119 56 143.5 M49 149.8 H186.9 M61.6 159.6 V166.6 M80.5 159.6 V166.6 M99.4 159.6 V166.6 M118.3 159.6 V166.6 M137.2 159.6 V166.6 M156.1 159.6 V166.6"/></g></g><g clip-path="url(#shape-4-0)"><rect x="0" y="164.8" width="224" height="6" fill="#e8bd72" fill-opacity=".7"/><path d="M-80 164.8 Q-60 157.8 -40 164.8 T0 164.8 T40 164.8 T80 164.8 T120 164.8 T160 164.8 T200 164.8 T240 164.8 T280 164.8" fill="none" stroke="#fff8d6" stroke-width="2.6"/></g></g><text x="358" y="966" fill="#ccd4db" font-family="sans-serif" font-size="14">Sydney Opera House · 50%</text><g transform="translate(398 981) scale(0.8620689655172413)"><defs><clipPath id="fill-4-1"><rect x="0" y="96.60000000000001" width="224" height="203"/></clipPath><clipPath id="shape-4-1"><path d="M24.5 170.8 V156.1 H38.5 L49 143.5 H32.9 Q32.2 105 45.5 83.3 Q63 91 77 105.7 Q84.7 63.7 102.9 35.7 Q101.5 75.6 123.2 114.1 Q140 48.3 161 22.4 Q144.9 103.6 197.4 143.5 H189.7 L199.5 156.1 V170.8 Z" clip-rule="nonzero"/></clipPath></defs><g fill="none" stroke="#e9c587" stroke-width="1" opacity=".42"><path d="M24.5 170.8 V156.1 H38.5 L49 143.5 H32.9 Q32.2 105 45.5 83.3 Q63 91 77 105.7 Q84.7 63.7 102.9 35.7 Q101.5 75.6 123.2 114.1 Q140 48.3 161 22.4 Q144.9 103.6 197.4 143.5 H189.7 L199.5 156.1 V170.8 Z"/><path d="M24.5 170.8 H199.5 V156.1 H24.5 Z M38.5 156.1 L49 143.5 H189.7 M32.9 143.5 Q32.2 105 45.5 83.3 Q84 99.4 101.5 143.5 Z M67.9 143.5 Q75.6 73.5 102.9 35.7 Q100.8 105.7 147 143.5 Z M113.4 143.5 Q133.7 53.9 161 22.4 Q144.9 103.6 197.4 143.5 Z M45.5 83.3 Q56 123.9 88.2 143.5 M102.9 35.7 Q107.1 111.3 130.9 143.5 M161 22.4 Q149.1 107.8 179.2 143.5 M42 163.1 H189"/><path d="M102.9 35.7 Q90.3 100.8 94.5 143.5 M161 22.4 Q138.6 106.4 152.6 143.5 M45.5 83.3 Q42 119 56 143.5 M49 149.8 H186.9 M61.6 159.6 V166.6 M80.5 159.6 V166.6 M99.4 159.6 V166.6 M118.3 159.6 V166.6 M137.2 159.6 V166.6 M156.1 159.6 V166.6"/></g><g clip-path="url(#fill-4-1)"><path d="M24.5 170.8 V156.1 H38.5 L49 143.5 H32.9 Q32.2 105 45.5 83.3 Q63 91 77 105.7 Q84.7 63.7 102.9 35.7 Q101.5 75.6 123.2 114.1 Q140 48.3 161 22.4 Q144.9 103.6 197.4 143.5 H189.7 L199.5 156.1 V170.8 Z" fill="#e8bd72" fill-opacity=".42" fill-rule="nonzero"/><g fill="none" stroke="#ffe8b7" stroke-width="1.4"><path d="M24.5 170.8 V156.1 H38.5 L49 143.5 H32.9 Q32.2 105 45.5 83.3 Q63 91 77 105.7 Q84.7 63.7 102.9 35.7 Q101.5 75.6 123.2 114.1 Q140 48.3 161 22.4 Q144.9 103.6 197.4 143.5 H189.7 L199.5 156.1 V170.8 Z"/><path d="M24.5 170.8 H199.5 V156.1 H24.5 Z M38.5 156.1 L49 143.5 H189.7 M32.9 143.5 Q32.2 105 45.5 83.3 Q84 99.4 101.5 143.5 Z M67.9 143.5 Q75.6 73.5 102.9 35.7 Q100.8 105.7 147 143.5 Z M113.4 143.5 Q133.7 53.9 161 22.4 Q144.9 103.6 197.4 143.5 Z M45.5 83.3 Q56 123.9 88.2 143.5 M102.9 35.7 Q107.1 111.3 130.9 143.5 M161 22.4 Q149.1 107.8 179.2 143.5 M42 163.1 H189"/><path d="M102.9 35.7 Q90.3 100.8 94.5 143.5 M161 22.4 Q138.6 106.4 152.6 143.5 M45.5 83.3 Q42 119 56 143.5 M49 149.8 H186.9 M61.6 159.6 V166.6 M80.5 159.6 V166.6 M99.4 159.6 V166.6 M118.3 159.6 V166.6 M137.2 159.6 V166.6 M156.1 159.6 V166.6"/></g></g><g clip-path="url(#shape-4-1)"><rect x="0" y="96.60000000000001" width="224" height="6" fill="#e8bd72" fill-opacity=".7"/><path d="M-80 96.60000000000001 Q-60 89.60000000000001 -40 96.60000000000001 T0 96.60000000000001 T40 96.60000000000001 T80 96.60000000000001 T120 96.60000000000001 T160 96.60000000000001 T200 96.60000000000001 T240 96.60000000000001 T280 96.60000000000001" fill="none" stroke="#fff8d6" stroke-width="2.6"/></g></g><text x="688" y="966" fill="#ccd4db" font-family="sans-serif" font-size="14">Sydney Opera House · 100%</text><g transform="translate(728 981) scale(0.8620689655172413)"><defs><clipPath id="fill-4-2"><rect x="0" y="0" width="224" height="203"/></clipPath><clipPath id="shape-4-2"><path d="M24.5 170.8 V156.1 H38.5 L49 143.5 H32.9 Q32.2 105 45.5 83.3 Q63 91 77 105.7 Q84.7 63.7 102.9 35.7 Q101.5 75.6 123.2 114.1 Q140 48.3 161 22.4 Q144.9 103.6 197.4 143.5 H189.7 L199.5 156.1 V170.8 Z" clip-rule="nonzero"/></clipPath></defs><g fill="none" stroke="#e9c587" stroke-width="1" opacity=".42"><path d="M24.5 170.8 V156.1 H38.5 L49 143.5 H32.9 Q32.2 105 45.5 83.3 Q63 91 77 105.7 Q84.7 63.7 102.9 35.7 Q101.5 75.6 123.2 114.1 Q140 48.3 161 22.4 Q144.9 103.6 197.4 143.5 H189.7 L199.5 156.1 V170.8 Z"/><path d="M24.5 170.8 H199.5 V156.1 H24.5 Z M38.5 156.1 L49 143.5 H189.7 M32.9 143.5 Q32.2 105 45.5 83.3 Q84 99.4 101.5 143.5 Z M67.9 143.5 Q75.6 73.5 102.9 35.7 Q100.8 105.7 147 143.5 Z M113.4 143.5 Q133.7 53.9 161 22.4 Q144.9 103.6 197.4 143.5 Z M45.5 83.3 Q56 123.9 88.2 143.5 M102.9 35.7 Q107.1 111.3 130.9 143.5 M161 22.4 Q149.1 107.8 179.2 143.5 M42 163.1 H189"/><path d="M102.9 35.7 Q90.3 100.8 94.5 143.5 M161 22.4 Q138.6 106.4 152.6 143.5 M45.5 83.3 Q42 119 56 143.5 M49 149.8 H186.9 M61.6 159.6 V166.6 M80.5 159.6 V166.6 M99.4 159.6 V166.6 M118.3 159.6 V166.6 M137.2 159.6 V166.6 M156.1 159.6 V166.6"/></g><g clip-path="url(#fill-4-2)"><path d="M24.5 170.8 V156.1 H38.5 L49 143.5 H32.9 Q32.2 105 45.5 83.3 Q63 91 77 105.7 Q84.7 63.7 102.9 35.7 Q101.5 75.6 123.2 114.1 Q140 48.3 161 22.4 Q144.9 103.6 197.4 143.5 H189.7 L199.5 156.1 V170.8 Z" fill="#e8bd72" fill-opacity=".42" fill-rule="nonzero"/><g fill="none" stroke="#ffe8b7" stroke-width="1.4"><path d="M24.5 170.8 V156.1 H38.5 L49 143.5 H32.9 Q32.2 105 45.5 83.3 Q63 91 77 105.7 Q84.7 63.7 102.9 35.7 Q101.5 75.6 123.2 114.1 Q140 48.3 161 22.4 Q144.9 103.6 197.4 143.5 H189.7 L199.5 156.1 V170.8 Z"/><path d="M24.5 170.8 H199.5 V156.1 H24.5 Z M38.5 156.1 L49 143.5 H189.7 M32.9 143.5 Q32.2 105 45.5 83.3 Q84 99.4 101.5 143.5 Z M67.9 143.5 Q75.6 73.5 102.9 35.7 Q100.8 105.7 147 143.5 Z M113.4 143.5 Q133.7 53.9 161 22.4 Q144.9 103.6 197.4 143.5 Z M45.5 83.3 Q56 123.9 88.2 143.5 M102.9 35.7 Q107.1 111.3 130.9 143.5 M161 22.4 Q149.1 107.8 179.2 143.5 M42 163.1 H189"/><path d="M102.9 35.7 Q90.3 100.8 94.5 143.5 M161 22.4 Q138.6 106.4 152.6 143.5 M45.5 83.3 Q42 119 56 143.5 M49 149.8 H186.9 M61.6 159.6 V166.6 M80.5 159.6 V166.6 M99.4 159.6 V166.6 M118.3 159.6 V166.6 M137.2 159.6 V166.6 M156.1 159.6 V166.6"/></g></g></g></svg>