<svg xmlns="http://www.w3.org/2000/svg" width="896" height="784" viewBox="0 0 224 196"><defs><clipPath id="monument"><path d="M22.4 157.5 V63.7 Q28 34.3 109.9 24.5 Q147 21.7 168.7 35.7 L168.7 51.8 L156.8 57.4 L179.9 81.2 L168.7 91 L200.9 121.8 L200.9 157.5 Q112 189.7 22.4 157.5 Z M52.5 58.8 Q103.6 34.3 151.9 52.5 Q106.4 73.5 52.5 58.8 Z M37.1 157.5 V145.6 Q45.5 130.2 53.9 149.1 V162.4 Z M70 165.9 V152.6 Q79.8 135.8 89.6 156.1 V169.4 Z M107.1 170.8 V158.9 Q116.9 141.4 126.7 158.9 V170.8 Z M145.6 168 V155.4 Q154.7 137.9 163.8 152.6 V163.8 Z M178.5 159.6 V147.7 Q183.4 135.8 189 143.5 V156.1 Z M37.1 124.6 V112.7 Q45.5 99.4 53.9 116.9 V129.5 Z M70 134.4 V119.7 Q79.8 105.7 89.6 123.9 V137.9 Z M107.1 139.3 V126 Q116.9 109.2 126.7 126 V139.3 Z M145.6 135.1 V124.6 Q154 109.9 162.4 120.4 V131.6 Z M37.1 92.4 V81.9 Q45.5 69.3 53.9 85.4 V96.6 Z M70 101.5 V89.6 Q79.8 75.6 89.6 92.4 V105 Z M107.1 106.4 V93.8 Q116.9 79.1 126.7 93.1 V105 Z" clip-rule="evenodd"/></clipPath></defs><rect width="224" height="196" fill="white" clip-path="url(#monument)"/></svg>