<svg xmlns="http://www.w3.org/2000/svg" width="896" height="756" viewBox="0 0 224 189"><path d="M33.6 156.1 L35.7 95.9 H51.1 L53.2 156.1 Z M175 156.1 L172.9 95.9 H189 L191.8 156.1 Z M25.9 95.9 L27.3 79.1 L71.4 81.2 V96.6 Z M154 96.6 L152.6 81.2 L198.8 79.1 V95.9 Z M70 161 L72.1 45.5 H89.6 L91.7 161 Z M130.2 161 L132.3 45.5 H149.8 L151.2 161 Z M65.8 45.5 L67.9 26.6 L154 24.5 L157.5 45.5 Z M102.9 152.6 L105 87.5 H118.3 L121.1 152.6 Z M97.3 87.5 H126 V74.2 H98 Z" fill-rule="nonzero" fill="white"/></svg>